<svg width="24" height="24" viewBox="0 0 24 24" fill="none" xmlns="http://www.w3.org/2000/svg">
<g id="solar:link-bold">
<path id="Vector" d="M15.7289 3.88389C17.1629 2.44389 19.2609 2.41389 20.4219 3.57989C21.5859 4.74789 21.5549 6.85989 20.1189 8.29989L17.6959 10.7329C17.5595 10.8745 17.4842 11.0641 17.4862 11.2608C17.4881 11.4574 17.5673 11.6454 17.7065 11.7843C17.8458 11.9231 18.034 12.0017 18.2307 12.0032C18.4273 12.0046 18.6167 11.9287 18.7579 11.7919L21.1819 9.35889C23.0929 7.43989 23.3329 4.37689 21.4849 2.52089C19.6349 0.663893 16.5779 0.905894 14.6649 2.82489L9.81895 7.69189C7.90795 9.61089 7.66795 12.6739 9.51595 14.5289C9.58497 14.6007 9.66759 14.658 9.759 14.6975C9.8504 14.737 9.94876 14.7579 10.0483 14.759C10.1479 14.7601 10.2467 14.7413 10.3389 14.7039C10.4312 14.6664 10.5151 14.6109 10.5856 14.5406C10.6562 14.4704 10.7121 14.3868 10.75 14.2947C10.788 14.2026 10.8072 14.1039 10.8065 14.0044C10.8059 13.9048 10.7855 13.8063 10.7464 13.7147C10.7073 13.6231 10.6504 13.5403 10.5789 13.4709C9.41495 12.3029 9.44695 10.1909 10.8819 8.75089L15.7289 3.88389Z" fill="#666669"/>
<path id="Vector_2" d="M14.485 9.47011C14.3444 9.32914 14.1536 9.24979 13.9545 9.24951C13.7555 9.24923 13.5644 9.32804 13.4235 9.46861C13.2825 9.60917 13.2032 9.79998 13.2029 9.99905C13.2026 10.1981 13.2814 10.3891 13.422 10.5301C14.586 11.6981 14.555 13.8091 13.119 15.2501L8.27197 20.1161C6.83697 21.5561 4.73897 21.5861 3.57797 20.4201C2.41397 19.2521 2.44597 17.1401 3.88097 15.7001L6.30497 13.2671C6.37451 13.1973 6.42961 13.1145 6.46714 13.0234C6.50467 12.9323 6.5239 12.8347 6.52371 12.7362C6.52353 12.6377 6.50394 12.5401 6.46606 12.4492C6.42819 12.3582 6.37277 12.2756 6.30297 12.2061C6.23317 12.1366 6.15036 12.0815 6.05927 12.0439C5.96817 12.0064 5.87058 11.9872 5.77206 11.9874C5.67353 11.9876 5.57601 12.0071 5.48506 12.045C5.39411 12.0829 5.31151 12.1383 5.24197 12.2081L2.81797 14.6411C0.906971 16.5611 0.666971 19.6231 2.51497 21.4791C4.36497 23.3371 7.42197 23.0941 9.33497 21.1751L14.182 16.3081C16.093 14.3901 16.333 11.3251 14.485 9.47011Z" fill="#666669"/>
</g>
</svg>
