<svg width="330" height="72" viewBox="0 0 330 72" fill="none" xmlns="http://www.w3.org/2000/svg">
<ellipse cx="17.1484" cy="28.529" rx="4.375" ry="4.41176" fill="#72BAC1"/>
<ellipse cx="52.1484" cy="28.529" rx="4.375" ry="4.41176" fill="#72BAC1"/>
<path fill-rule="evenodd" clip-rule="evenodd" d="M54.9991 64.0016C60.9987 61.431 62.9348 59.5807 64.5526 57.9492C65.4082 57.1047 66.0608 56.0769 66.4612 54.9434C67.252 52.7472 67.1161 50.827 66.6686 48.6212C66.4076 47.374 66.0324 46.1535 65.5478 44.9751C65.5062 44.8732 65.4696 44.7785 65.4357 44.6911C65.4298 44.6759 65.424 44.6609 65.4183 44.6461L65.4105 44.6263C65.1761 44.0274 64.8285 43.1395 63.7458 42.6561C63.0188 42.3313 62.1423 42.2727 60.6768 42.2732C57.6626 42.2729 52.2074 43.6779 49.9568 44.4299L49.9372 44.4365C48.2236 45.0092 47.1855 45.3562 46.3821 46.1663L46.3771 46.1713C45.4505 47.1057 45.2214 48.2743 45.0005 49.8223C44.9715 50.018 44.9468 50.2094 44.9226 50.3961C44.9184 50.4287 44.9142 50.4611 44.91 50.4935C44.7131 52.0089 44.614 52.3996 44.072 52.754C43.0237 53.4401 39.2371 55.2669 34.6934 55.2915C30.1497 55.3161 26.1921 53.536 25.1408 52.8632C24.6184 52.5275 24.5154 52.1485 24.3106 50.6839L24.3065 50.6553C24.2735 50.4214 24.2395 50.1806 24.2002 49.9329C23.9832 48.559 23.7228 47.346 22.7661 46.3972C21.9499 45.5896 20.887 45.2071 19.2796 44.6287L19.2687 44.6248C16.8718 43.7663 11.4792 42.5346 8.47589 42.5684C7.01046 42.5839 6.13443 42.6534 5.41011 42.9861C4.32194 43.4818 3.98191 44.3878 3.75798 44.9863C3.7201 45.0863 3.67728 45.198 3.63033 45.3172C3.15102 46.4985 2.78157 47.7214 2.52666 48.9704C2.09458 51.1859 1.96838 53.1063 2.77448 55.2915C3.44682 57.1219 6.44726 61.003 13.9996 64.0019C21.552 67.0007 26.727 68.0372 34.6934 68.0003C42.9478 67.9539 48.9994 66.5723 54.9991 64.0016Z" fill="#72BAC1"/>
<path d="M90.752 19.848C90.752 16.392 92.992 14.152 96.512 14.152C99.968 14.152 102.208 16.392 102.208 19.848C102.208 23.304 99.968 25.608 96.512 25.608C92.992 25.608 90.752 23.304 90.752 19.848ZM101.632 69H91.392V30.6H101.632V69ZM133.049 49.736C133.049 44.104 130.105 40.392 125.561 40.392C121.273 40.392 118.137 44.36 118.137 49.8V69H107.897V30.6H118.137V35.08C119.481 32.2 123.449 30.152 127.417 30.152C137.209 30.152 143.289 37.96 143.289 49.736V69H133.049V49.736ZM171.384 69H160.504L146.424 30.6H157.304L165.944 54.152L174.584 30.6H185.464L171.384 69ZM187.157 49.736C187.157 38.664 195.477 30.152 206.229 30.152C216.981 30.152 225.237 38.664 225.237 49.736C225.237 60.872 216.981 69.384 206.229 69.384C195.477 69.384 187.157 60.872 187.157 49.736ZM206.229 40.392C201.237 40.392 197.397 44.424 197.397 49.736C197.397 55.112 201.237 59.144 206.229 59.144C211.221 59.144 214.997 55.112 214.997 49.736C214.997 44.424 211.221 40.392 206.229 40.392ZM230.205 19.848C230.205 16.392 232.445 14.152 235.965 14.152C239.421 14.152 241.661 16.392 241.661 19.848C241.661 23.304 239.421 25.608 235.965 25.608C232.445 25.608 230.205 23.304 230.205 19.848ZM241.085 69H230.845V30.6H241.085V69ZM265.59 40.328C260.47 40.328 257.078 44.04 257.078 49.672C257.078 55.368 260.47 59.08 265.59 59.08C269.11 59.08 271.798 57.352 273.206 54.472H284.022C282.23 63.56 275.318 69.32 265.59 69.32C254.326 69.32 246.838 61.512 246.838 49.672C246.838 37.896 254.326 30.088 265.59 30.088C275.318 30.088 282.23 35.848 284.022 44.872H273.206C271.734 42.056 269.11 40.328 265.59 40.328ZM313.965 57.224H324.845C322.221 64.392 315.373 69.32 307.565 69.32C296.365 69.32 288.493 61.192 288.493 49.672C288.493 38.536 296.621 30.088 307.373 30.088C318.125 30.088 326.253 38.536 326.253 49.672C326.253 50.888 326.189 52.168 325.997 53.32H299.245C300.397 57.224 303.533 59.72 307.501 59.72C310.509 59.72 312.877 58.696 313.965 57.224ZM299.245 45.96H315.501C314.349 42.184 311.341 39.752 307.373 39.752C303.405 39.752 300.397 42.184 299.245 45.96Z" fill="#72BAC1"/>
</svg>
