<svg width="166" height="36" viewBox="0 0 166 36" fill="none" xmlns="http://www.w3.org/2000/svg">
<ellipse cx="9.07471" cy="14.2645" rx="2.1875" ry="2.20588" fill="#72BAC1"/>
<ellipse cx="26.5747" cy="14.2645" rx="2.1875" ry="2.20588" fill="#72BAC1"/>
<path fill-rule="evenodd" clip-rule="evenodd" d="M27.9997 32.0009C30.9996 30.7156 31.9676 29.7905 32.7765 28.9747C33.2043 28.5525 33.5306 28.0386 33.7308 27.4718C34.1262 26.3737 34.0582 25.4136 33.8345 24.3107C33.704 23.6871 33.5164 23.0769 33.2741 22.4877C33.2533 22.4367 33.235 22.3894 33.2181 22.3457C33.2151 22.3381 33.2122 22.3306 33.2094 22.3232L33.2055 22.3133C33.0882 22.0138 32.9144 21.5699 32.3731 21.3282C32.0096 21.1658 31.5714 21.1365 30.8386 21.1367C29.3315 21.1366 26.6039 21.8391 25.4786 22.2151L25.4688 22.2184C24.612 22.5047 24.0929 22.6782 23.6913 23.0833L23.6888 23.0858C23.2255 23.553 23.1109 24.1373 23.0005 24.9113C22.986 25.009 22.9736 25.1046 22.9616 25.1979C22.9594 25.2143 22.9573 25.2306 22.9552 25.2469C22.8568 26.0046 22.8072 26.1999 22.5362 26.3771C22.0121 26.7202 20.1188 27.6336 17.8469 27.6459C15.5751 27.6582 13.5962 26.7681 13.0706 26.4317C12.8094 26.2639 12.7579 26.0744 12.6555 25.3421L12.6535 25.3279C12.637 25.2109 12.62 25.0905 12.6003 24.9666C12.4918 24.2796 12.3616 23.6731 11.8833 23.1987C11.4752 22.7949 10.9437 22.6037 10.14 22.3145L10.1346 22.3125C8.93611 21.8833 6.23979 21.2674 4.73816 21.2843C4.00544 21.2921 3.56743 21.3268 3.20527 21.4932C2.66118 21.741 2.49117 22.194 2.3792 22.4933C2.36026 22.5433 2.33885 22.5991 2.31538 22.6587C2.07572 23.2494 1.891 23.8608 1.76354 24.4853C1.5475 25.5931 1.4844 26.5533 1.88745 27.6459C2.22362 28.5611 3.72384 30.5016 7.50003 32.0011C11.2762 33.5005 13.8637 34.0187 17.8469 34.0003C21.9741 33.9771 24.9999 33.2863 27.9997 32.0009Z" fill="#72BAC1"/>
<path d="M45.876 10.424C45.876 8.696 46.996 7.576 48.756 7.576C50.484 7.576 51.604 8.696 51.604 10.424C51.604 12.152 50.484 13.304 48.756 13.304C46.996 13.304 45.876 12.152 45.876 10.424ZM51.316 35H46.196V15.8H51.316V35ZM67.0246 25.368C67.0246 22.552 65.5526 20.696 63.2806 20.696C61.1366 20.696 59.5686 22.68 59.5686 25.4V35H54.4486V15.8H59.5686V18.04C60.2406 16.6 62.2246 15.576 64.2086 15.576C69.1046 15.576 72.1446 19.48 72.1446 25.368V35H67.0246V25.368ZM86.1921 35H80.7521L73.7121 15.8H79.1521L83.4721 27.576L87.7921 15.8H93.2321L86.1921 35ZM94.0787 25.368C94.0787 19.832 98.2387 15.576 103.615 15.576C108.991 15.576 113.119 19.832 113.119 25.368C113.119 30.936 108.991 35.192 103.615 35.192C98.2387 35.192 94.0787 30.936 94.0787 25.368ZM103.615 20.696C101.119 20.696 99.1987 22.712 99.1987 25.368C99.1987 28.056 101.119 30.072 103.615 30.072C106.111 30.072 107.999 28.056 107.999 25.368C107.999 22.712 106.111 20.696 103.615 20.696ZM115.603 10.424C115.603 8.696 116.723 7.576 118.483 7.576C120.211 7.576 121.331 8.696 121.331 10.424C121.331 12.152 120.211 13.304 118.483 13.304C116.723 13.304 115.603 12.152 115.603 10.424ZM121.043 35H115.923V15.8H121.043V35ZM133.295 20.664C130.735 20.664 129.039 22.52 129.039 25.336C129.039 28.184 130.735 30.04 133.295 30.04C135.055 30.04 136.399 29.176 137.103 27.736H142.511C141.615 32.28 138.159 35.16 133.295 35.16C127.663 35.16 123.919 31.256 123.919 25.336C123.919 19.448 127.663 15.544 133.295 15.544C138.159 15.544 141.615 18.424 142.511 22.936H137.103C136.367 21.528 135.055 20.664 133.295 20.664ZM157.482 29.112H162.922C161.61 32.696 158.186 35.16 154.283 35.16C148.682 35.16 144.747 31.096 144.747 25.336C144.747 19.768 148.811 15.544 154.186 15.544C159.562 15.544 163.626 19.768 163.626 25.336C163.626 25.944 163.595 26.584 163.498 27.16H150.122C150.698 29.112 152.266 30.36 154.25 30.36C155.755 30.36 156.938 29.848 157.482 29.112ZM150.122 23.48H158.25C157.674 21.592 156.171 20.376 154.186 20.376C152.202 20.376 150.698 21.592 150.122 23.48Z" fill="#72BAC1"/>
</svg>
