<svg width="20" height="24" viewBox="0 0 20 24" fill="none" xmlns="http://www.w3.org/2000/svg">
<path id="Vector" fill-rule="evenodd" clip-rule="evenodd" d="M9.85714 0C8.51772 0 7.23316 0.532082 6.28605 1.47919C5.33894 2.42631 4.80686 3.71087 4.80686 5.05029V10.9217C4.80686 11.5849 4.93749 12.2416 5.19129 12.8544C5.44509 13.4671 5.81709 14.0238 6.28605 14.4928C6.75501 14.9618 7.31175 15.3338 7.92448 15.5876C8.53721 15.8414 9.19393 15.972 9.85714 15.972C10.5204 15.972 11.1771 15.8414 11.7898 15.5876C12.4025 15.3338 12.9593 14.9618 13.4282 14.4928C13.8972 14.0238 14.2692 13.4671 14.523 12.8544C14.7768 12.2416 14.9074 11.5849 14.9074 10.9217V5.05029C14.9074 3.71087 14.3753 2.42631 13.4282 1.47919C12.4811 0.532082 11.1966 0 9.85714 0ZM8.57143 20.5851V22.6629C8.57143 23.0039 8.70689 23.3309 8.948 23.572C9.18912 23.8131 9.51615 23.9486 9.85714 23.9486C10.1981 23.9486 10.5252 23.8131 10.7663 23.572C11.0074 23.3309 11.1429 23.0039 11.1429 22.6629V20.5834C13.453 20.4733 15.632 19.4781 17.228 17.8043C18.8239 16.1304 19.7143 13.9065 19.7143 11.5937C19.7143 11.2527 19.5788 10.9257 19.3377 10.6846C19.0966 10.4435 18.7696 10.308 18.4286 10.308C18.0876 10.308 17.7606 10.4435 17.5194 10.6846C17.2783 10.9257 17.1429 11.2527 17.1429 11.5937C17.1429 13.2987 16.4656 14.9338 15.26 16.1394C14.0544 17.345 12.4192 18.0223 10.7143 18.0223H9C7.29504 18.0223 5.6599 17.345 4.45431 16.1394C3.24872 14.9338 2.57143 13.2987 2.57143 11.5937C2.57143 11.4249 2.53817 11.2577 2.47356 11.1017C2.40895 10.9457 2.31424 10.804 2.19485 10.6846C2.07546 10.5652 1.93373 10.4705 1.77774 10.4059C1.62175 10.3413 1.45456 10.308 1.28571 10.308C1.11687 10.308 0.949683 10.3413 0.793693 10.4059C0.637703 10.4705 0.495967 10.5652 0.376577 10.6846C0.257188 10.804 0.162483 10.9457 0.0978694 11.1017C0.0332562 11.2577 1.46813e-07 11.4249 1.49329e-07 11.5937C-0.000420936 13.9068 0.889719 16.1312 2.48571 17.8053C4.08171 19.4795 6.26102 20.475 8.57143 20.5851Z" fill="#4F4F51"/>
</svg>
