<svg width="25" height="24" viewBox="0 0 25 24" fill="none" xmlns="http://www.w3.org/2000/svg">
<g id="material-symbols:palette">
<path id="Vector" d="M12.5 22C11.1333 22 9.84167 21.7373 8.625 21.212C7.40833 20.6867 6.346 19.97 5.438 19.062C4.52933 18.154 3.81267 17.0917 3.288 15.875C2.76333 14.6583 2.50067 13.3667 2.5 12C2.5 10.6167 2.771 9.31667 3.313 8.1C3.855 6.88333 4.58833 5.825 5.513 4.925C6.43767 4.025 7.51667 3.31267 8.75 2.788C9.98333 2.26333 11.3 2.00067 12.7 2C14.0333 2 15.2917 2.22933 16.475 2.688C17.6583 3.14667 18.696 3.78 19.588 4.588C20.4793 5.396 21.1877 6.35433 21.713 7.463C22.2383 8.57167 22.5007 9.76733 22.5 11.05C22.5 12.9667 21.9167 14.4377 20.75 15.463C19.5833 16.4883 18.1667 17.0007 16.5 17H14.65C14.5 17 14.396 17.0417 14.338 17.125C14.28 17.2083 14.2507 17.3 14.25 17.4C14.25 17.6 14.375 17.8877 14.625 18.263C14.875 18.6383 15 19.0673 15 19.55C15 20.3833 14.771 21 14.313 21.4C13.855 21.8 13.2507 22 12.5 22ZM7 13C7.43333 13 7.79167 12.8583 8.075 12.575C8.35833 12.2917 8.5 11.9333 8.5 11.5C8.5 11.0667 8.35833 10.7083 8.075 10.425C7.79167 10.1417 7.43333 10 7 10C6.56667 10 6.20833 10.1417 5.925 10.425C5.64167 10.7083 5.5 11.0667 5.5 11.5C5.5 11.9333 5.64167 12.2917 5.925 12.575C6.20833 12.8583 6.56667 13 7 13ZM10 9C10.4333 9 10.7917 8.85833 11.075 8.575C11.3583 8.29167 11.5 7.93333 11.5 7.5C11.5 7.06667 11.3583 6.70833 11.075 6.425C10.7917 6.14167 10.4333 6 10 6C9.56667 6 9.20833 6.14167 8.925 6.425C8.64167 6.70833 8.5 7.06667 8.5 7.5C8.5 7.93333 8.64167 8.29167 8.925 8.575C9.20833 8.85833 9.56667 9 10 9ZM15 9C15.4333 9 15.7917 8.85833 16.075 8.575C16.3583 8.29167 16.5 7.93333 16.5 7.5C16.5 7.06667 16.3583 6.70833 16.075 6.425C15.7917 6.14167 15.4333 6 15 6C14.5667 6 14.2083 6.14167 13.925 6.425C13.6417 6.70833 13.5 7.06667 13.5 7.5C13.5 7.93333 13.6417 8.29167 13.925 8.575C14.2083 8.85833 14.5667 9 15 9ZM18 13C18.4333 13 18.7917 12.8583 19.075 12.575C19.3583 12.2917 19.5 11.9333 19.5 11.5C19.5 11.0667 19.3583 10.7083 19.075 10.425C18.7917 10.1417 18.4333 10 18 10C17.5667 10 17.2083 10.1417 16.925 10.425C16.6417 10.7083 16.5 11.0667 16.5 11.5C16.5 11.9333 16.6417 12.2917 16.925 12.575C17.2083 12.8583 17.5667 13 18 13Z" fill="#4F4F51"/>
</g>
</svg>
