<svg width="24" height="24" viewBox="0 0 24 24" fill="none" xmlns="http://www.w3.org/2000/svg">
<g id="ant-design:setting-filled">
<path id="Vector" d="M21.7341 14.6046L20.1907 13.3239C20.2638 12.8885 20.3016 12.4441 20.3016 12.0019C20.3016 11.5597 20.2638 11.1129 20.1907 10.6798L21.7341 9.39908C21.8507 9.30218 21.9342 9.17312 21.9734 9.02906C22.0126 8.88499 22.0057 8.73276 21.9536 8.59259L21.9324 8.53302C21.5076 7.37985 20.8711 6.31094 20.0538 5.37807L20.0113 5.32996C19.9121 5.21667 19.7798 5.13522 19.6319 5.09637C19.4841 5.05751 19.3275 5.06307 19.183 5.1123L17.2666 5.77445C16.5586 5.21082 15.7704 4.76633 14.9161 4.45702L14.5456 2.51182C14.5176 2.36528 14.4444 2.23046 14.3356 2.12529C14.2269 2.02011 14.0877 1.94955 13.9367 1.92298L13.873 1.91153C12.6458 1.69616 11.3525 1.69616 10.1253 1.91153L10.0616 1.92298C9.91051 1.94955 9.77136 2.02011 9.66261 2.12529C9.55385 2.23046 9.48063 2.36528 9.45268 2.51182L9.0798 4.46619C8.23357 4.77796 7.44525 5.22137 6.74575 5.77903L4.81527 5.1123C4.67076 5.06268 4.51411 5.05692 4.36615 5.0958C4.21819 5.13468 4.08592 5.21635 3.98691 5.32996L3.94443 5.37807C3.12856 6.31193 2.49225 7.38058 2.06587 8.53302L2.04463 8.59259C1.93843 8.87899 2.02575 9.19975 2.26411 9.39908L3.82643 10.6936C3.75327 11.1243 3.71787 11.5642 3.71787 11.9996C3.71787 12.4395 3.75327 12.8794 3.82643 13.3055L2.26883 14.6C2.15224 14.697 2.06879 14.826 2.02958 14.9701C1.99038 15.1141 1.99727 15.2664 2.04935 15.4065L2.07059 15.4661C2.49775 16.6186 3.12787 17.684 3.94915 18.6211L3.99163 18.6692C4.09088 18.7825 4.22316 18.8639 4.37103 18.9028C4.5189 18.9416 4.67543 18.9361 4.81999 18.8868L6.75047 18.2201C7.45375 18.7814 8.23728 19.2259 9.08452 19.5329L9.4574 21.4873C9.48535 21.6339 9.55857 21.7687 9.66733 21.8738C9.77608 21.979 9.91523 22.0496 10.0663 22.0761L10.13 22.0876C11.3693 22.3041 12.6384 22.3041 13.8777 22.0876L13.9414 22.0761C14.0924 22.0496 14.2316 21.979 14.3404 21.8738C14.4491 21.7687 14.5223 21.6339 14.5503 21.4873L14.9208 19.5421C15.7751 19.2305 16.5634 18.7883 17.2714 18.2247L19.1877 18.8868C19.3322 18.9365 19.4888 18.9422 19.6368 18.9033C19.7848 18.8645 19.917 18.7828 20.016 18.6692L20.0585 18.6211C20.8798 17.6794 21.5099 16.6186 21.9371 15.4661L21.9583 15.4065C22.0598 15.1224 21.9725 14.804 21.7341 14.6046ZM12.0038 15.8006C9.71228 15.8006 7.85496 13.9975 7.85496 11.7727C7.85496 9.54801 9.71228 7.74486 12.0038 7.74486C14.2954 7.74486 16.1527 9.54801 16.1527 11.7727C16.1527 13.9975 14.2954 15.8006 12.0038 15.8006Z" fill="#828387"/>
</g>
</svg>
